<svg id="图层_1" data-name="图层 1" xmlns="http://www.w3.org/2000/svg" viewBox="0 0 170.08 65.3"><defs><style>.cls-1{fill:#036eb7;}</style></defs><title>logo_mid</title><path class="cls-1" d="M61.37,3.72h-3.7L48.51,42.59q-.24,1-.4,1.92A10.94,10.94,0,0,0,48,45.72a9.52,9.52,0,0,0-.17-1.28,16.79,16.79,0,0,0-.45-1.85L36.66,3.72H28.92L18.17,42.79q-.24.87-.41,1.78a8.47,8.47,0,0,0-.17,1.28,9.33,9.33,0,0,0-.15-1.19q-.16-.89-.4-1.87L8,3.72H.55l13.3,49.42h7.4L32,14.92a18.93,18.93,0,0,0,.45-1.87,8.29,8.29,0,0,0,.17-1.36h0A7.25,7.25,0,0,0,32.86,13q.21.94.48,1.92l11,38.23h7.4L65.07,3.72Zm85.4,43.61.38-.44,1.66,6.22h4.28V27H130.86V32.6h15.93v.61a19,19,0,0,1-.57,4.47,12.46,12.46,0,0,1-1.4,3.66,15.58,15.58,0,0,1-1.38,1.85,16,16,0,0,1-12.68,5.58q-8.09,0-12.53-5.28t-4.44-14.93q0-9.08,4.6-14.68a14.81,14.81,0,0,1,12-5.6q6.29,0,10.23,2.67a11.46,11.46,0,0,1,4.91,7.58h6.63a17.29,17.29,0,0,0-7-11.63,23.05,23.05,0,0,0-14.32-4.54q-10.78,0-17.45,7.19t-6.67,18.89a35.39,35.39,0,0,0,.57,6.49h-6.49Q99.5,41.48,95.59,45a14,14,0,0,1-9.81,3.55q-8,0-12.18-5.14t-4.2-15q0-9.25,4.53-14.71A15,15,0,0,1,86.09,8.29,16,16,0,0,1,95.65,11a11.74,11.74,0,0,1,4.68,7.58H107a17.63,17.63,0,0,0-6.63-11.87q-5.53-4.3-14.13-4.3-10.92,0-17.4,7.08t-6.48,19q0,11.94,6.24,19t16.74,7q9,0,14.91-5.19t7.14-13.92a24.53,24.53,0,0,0,5.88,11.94q6.53,7.18,17.1,7.18Q140.52,54.49,146.77,47.33ZM95.88,62.5H94.4l-1.49,1.39V61.22h-1.2v5h1.2V65l.5-.42,1.09,1.58h1.42L94.24,63.9Zm11.16-.1a2.55,2.55,0,0,0-1.69.53,1.76,1.76,0,0,0-.63,1.42,1.71,1.71,0,0,0,.63,1.39,3,3,0,0,0,3.39,0,1.71,1.71,0,0,0,.63-1.39,1.77,1.77,0,0,0-.63-1.42A2.55,2.55,0,0,0,107,62.41Zm.81,2.77a1.31,1.31,0,0,1-1.63,0,1.13,1.13,0,0,1-.28-.83,1.17,1.17,0,0,1,.28-.84,1.29,1.29,0,0,1,1.63,0,1.17,1.17,0,0,1,.28.84A1.13,1.13,0,0,1,107.86,65.18ZM101.46,62a1.68,1.68,0,0,1,.93.24.9.9,0,0,1,.43.64h1.28a1.83,1.83,0,0,0-.84-1.29,3.21,3.21,0,0,0-1.81-.48,2.89,2.89,0,0,0-2.06.71,2.51,2.51,0,0,0-.76,1.93,2.43,2.43,0,0,0,.76,1.89,2.92,2.92,0,0,0,2.06.7,3.08,3.08,0,0,0,1.82-.51,1.93,1.93,0,0,0,.83-1.37h-1.28a1,1,0,0,1-.43.71,1.55,1.55,0,0,1-.93.26,1.43,1.43,0,0,1-1.12-.45,1.8,1.8,0,0,1-.4-1.25,1.87,1.87,0,0,1,.41-1.28A1.41,1.41,0,0,1,101.46,62Zm11.32.43a1.71,1.71,0,0,0-1.29.46l-.15.19V62.5h-1.14v3.67h1.2V64.1a.85.85,0,0,1,.25-.66,1,1,0,0,1,.72-.23.81.81,0,0,1,.56.16.65.65,0,0,1,.18.5v2.29h1.2V63.71a1.18,1.18,0,0,0-.41-1A1.69,1.69,0,0,0,112.79,62.41ZM77,62.08H78.2v-.9H77Zm-3,.33a2.34,2.34,0,0,0-1.59.5,1.73,1.73,0,0,0-.57,1.38,1.9,1.9,0,0,0,.56,1.47,2.28,2.28,0,0,0,1.6.52A2.82,2.82,0,0,0,75.4,66a1.43,1.43,0,0,0,.72-.88H74.9a.51.51,0,0,1-.28.3,1,1,0,0,1-.5.12A.9.9,0,0,1,73,64.58h3.09a.66.66,0,0,0,0-.22,1.85,1.85,0,0,0-.56-1.45A2.31,2.31,0,0,0,74,62.41ZM73.06,64a1.13,1.13,0,0,1,.22-.48A.87.87,0,0,1,74,63.2a.93.93,0,0,1,.71.25.89.89,0,0,1,.22.52Zm15.76-.75a.93.93,0,0,1,.57.17.58.58,0,0,1,.24.44h1.22a1.3,1.3,0,0,0-.6-1,2.45,2.45,0,0,0-1.44-.39,2.25,2.25,0,0,0-1.57.53,1.83,1.83,0,0,0-.58,1.42,1.79,1.79,0,0,0,.56,1.41,2.33,2.33,0,0,0,1.59.5,2.36,2.36,0,0,0,1.4-.38,1.5,1.5,0,0,0,.63-1.07H89.63a.71.71,0,0,1-.26.48.85.85,0,0,1-.55.18.84.84,0,0,1-.69-.28,1.28,1.28,0,0,1-.24-.83,1.33,1.33,0,0,1,.24-.85A.83.83,0,0,1,88.82,63.22ZM77,62.5v3.67h1.2V62.5H77Zm6.76-.1a2.55,2.55,0,0,0-1.69.53,1.76,1.76,0,0,0-.63,1.42,1.71,1.71,0,0,0,.63,1.39,3,3,0,0,0,3.39,0,1.71,1.71,0,0,0,.63-1.39,1.77,1.77,0,0,0-.63-1.42A2.55,2.55,0,0,0,83.76,62.41Zm.81,2.77a1.31,1.31,0,0,1-1.63,0,1.13,1.13,0,0,1-.28-.83,1.17,1.17,0,0,1,.28-.84,1.29,1.29,0,0,1,1.63,0,1.17,1.17,0,0,1,.28.84A1.13,1.13,0,0,1,84.57,65.18Zm-14.36-4-1,3.6h0l-.89-3.6H66.95l-.88,3.63-1-3.63H63.71l1.71,5h1.22l1-3.9,1,3.9H69.8l1.71-5h-1.3Zm9.14,0v5h1.2v-5h-1.2ZM141.27,63a1.43,1.43,0,0,0-.15-.19,1.55,1.55,0,0,0-1.19-.45,1.89,1.89,0,0,0-1.39.53,1.87,1.87,0,0,0-.53,1.39,1.78,1.78,0,0,0,.54,1.36,2,2,0,0,0,1.43.51,1.45,1.45,0,0,0,1.14-.44l.1-.12v.45a.84.84,0,0,1-.22.65,1.08,1.08,0,0,1-.73.2,1.63,1.63,0,0,1-.61-.09.32.32,0,0,1-.22-.27h-1.3a1,1,0,0,0,.58.81,3.15,3.15,0,0,0,1.47.29,2.7,2.7,0,0,0,1.66-.41A1.52,1.52,0,0,0,142.4,66V62.5h-1.13Zm-.3,2.07a1.08,1.08,0,0,1-1.46,0,1.11,1.11,0,0,1-.26-.78,1.15,1.15,0,0,1,.26-.8.94.94,0,0,1,.73-.29,1,1,0,0,1,.73.28,1.31,1.31,0,0,1,0,1.58Zm7.59,1.2h0ZM153.75,63a1.78,1.78,0,0,0-.14.21V62.5h-1.14v3.67h1.2V64.27a.81.81,0,0,1,.27-.66,1.27,1.27,0,0,1,.82-.22h.36v-1h-.27A1.32,1.32,0,0,0,153.75,63Zm-34.81,1.38a4.66,4.66,0,0,0-1.47-.44,4.84,4.84,0,0,1-.77-.19c-.15-.06-.22-.13-.22-.21a.3.3,0,0,1,.19-.27,1.24,1.24,0,0,1,.54-.1,1.13,1.13,0,0,1,.58.13.38.38,0,0,1,.22.34h1.19a1,1,0,0,0-.57-.87,3,3,0,0,0-1.49-.33,2.35,2.35,0,0,0-1.33.34,1,1,0,0,0-.5.88.77.77,0,0,0,.39.71,5.26,5.26,0,0,0,1.54.44,3.55,3.55,0,0,1,.69.17q.2.09.2.21a.31.31,0,0,1-.2.28,1.29,1.29,0,0,1-.56.1,1.53,1.53,0,0,1-.72-.14.47.47,0,0,1-.28-.4h-1.22a1.11,1.11,0,0,0,.6.94,3.29,3.29,0,0,0,1.61.32,2.72,2.72,0,0,0,1.43-.33,1,1,0,0,0,.54-.87A.81.81,0,0,0,118.94,64.33Zm51.17-1.41a1.89,1.89,0,0,0-1.39-.52,1.62,1.62,0,0,0-1.28.55l-.08.09V62.5h-1.14v5.11h1.2V65.73l0,0a1.67,1.67,0,0,0,1.27.51,1.83,1.83,0,0,0,1.39-.55,2,2,0,0,0,.52-1.44A1.82,1.82,0,0,0,170.11,62.92Zm-1,2.26a1.12,1.12,0,0,1-1.5,0,1.09,1.09,0,0,1-.27-.79,1.25,1.25,0,0,1,.27-.85.94.94,0,0,1,.75-.31,1,1,0,0,1,.75.3,1.19,1.19,0,0,1,.27.83A1.15,1.15,0,0,1,169.13,65.18Zm-5.2-2.68v2.07a.85.85,0,0,1-.25.66,1,1,0,0,1-.72.23.8.8,0,0,1-.55-.16.64.64,0,0,1-.18-.5V62.5H161V65a1.18,1.18,0,0,0,.4.95,1.68,1.68,0,0,0,1.12.34,1.71,1.71,0,0,0,1.28-.46,1,1,0,0,0,.15-.19v.55h1.14V62.5h-1.2Zm-6.07-.1a2.55,2.55,0,0,0-1.69.53,1.76,1.76,0,0,0-.63,1.42,1.71,1.71,0,0,0,.63,1.39,3,3,0,0,0,3.39,0,1.71,1.71,0,0,0,.63-1.39,1.77,1.77,0,0,0-.63-1.42A2.55,2.55,0,0,0,157.86,62.41Zm.81,2.77a1.31,1.31,0,0,1-1.63,0,1.13,1.13,0,0,1-.28-.83,1.17,1.17,0,0,1,.28-.84,1.29,1.29,0,0,1,1.63,0,1.17,1.17,0,0,1,.28.84A1.13,1.13,0,0,1,158.67,65.18Zm-9.88-.83h1.44a1.64,1.64,0,0,1-.34.61,1.49,1.49,0,0,1-1.16.46,1.83,1.83,0,0,1-1.32-.44,1.71,1.71,0,0,1-.45-1.28,1.74,1.74,0,0,1,.47-1.3,1.78,1.78,0,0,1,1.31-.47,1.67,1.67,0,0,1,.89.24.84.84,0,0,1,.45.57h1.28a1.71,1.71,0,0,0-.85-1.22,3.43,3.43,0,0,0-1.84-.45,3.25,3.25,0,0,0-2.21.71,2.43,2.43,0,0,0-.82,1.93,2.4,2.4,0,0,0,.79,1.89,3.09,3.09,0,0,0,2.12.7,2.27,2.27,0,0,0,1.75-.7l.08-.08.12.64h.86V63.5h-2.57Zm-23.35-3.13v5h1.2v-5h-1.2Zm-2.35,1.29v2.07a.85.85,0,0,1-.25.66,1,1,0,0,1-.72.23.8.8,0,0,1-.55-.16.64.64,0,0,1-.18-.5V62.5h-1.2V65a1.18,1.18,0,0,0,.4.95,1.68,1.68,0,0,0,1.12.34,1.71,1.71,0,0,0,1.28-.46,1,1,0,0,0,.15-.19v.55h1.14V62.5h-1.2Zm6-1h-1.2v1h-.63v.68h.63v2.25a.67.67,0,0,0,.28.6,1.71,1.71,0,0,0,.91.18l.74,0v-.72h-.25a1.19,1.19,0,0,1-.39,0,.16.16,0,0,1-.09-.17V63.18h.73V62.5h-.73Zm1.54,1v3.67h1.2V62.5h-1.2Zm0-.43h1.22v-.9h-1.22Zm4.92.33a1.71,1.71,0,0,0-1.29.46l-.15.19V62.5H133v3.67h1.2V64.1a.85.85,0,0,1,.25-.66,1,1,0,0,1,.72-.23.81.81,0,0,1,.56.16.65.65,0,0,1,.18.5v2.29h1.2V63.71a1.18,1.18,0,0,0-.41-1A1.69,1.69,0,0,0,135.58,62.41Z" transform="translate(-0.55 -2.38)"/></svg>